# xmcd CD database file
#
# Track frame offsets:
#	150
#	17632
#	33217
#	56347
#	70215
#	93542
#	110370
#	129967
#	150940
#	170047
#
# Disc length: 2491 seconds
#
# Revision: 0
# Processed by: cddbd v1.4PL0 Copyright (c) Steve Scherf et al.
# Submitted via: CDex 1.50beta10
#
DISCID=7309b90a
DTITLE=Trudy Lynn - U Don't Know What Time It Is
DYEAR=1999
DGENRE=Blues
TTITLE0=Shake, Rattle N' Roll
TTITLE1=U Don't Know What Time It Is
TTITLE2=Help Me Through The Day
TTITLE3=Ace In The Hole
TTITLE4=Nothing But Love
TTITLE5=Time Gone By
TTITLE6=Time Is Running Out
TTITLE7=I Should Have Known
TTITLE8=Heart Of Stone
TTITLE9=Baby Come On Back
EXTD=YEAR: 1999
EXTT0=
EXTT1=
EXTT2=
EXTT3=
EXTT4=
EXTT5=
EXTT6=
EXTT7=
EXTT8=
EXTT9=
PLAYORDER=
